<mxfile host="app.diagrams.net" modified="2021-03-19T21:44:21.991Z" agent="5.0 (Windows NT 10.0; Win64; x64) AppleWebKit/537.36 (KHTML, like Gecko) Chrome/89.0.4389.90 Safari/537.36" etag="j_gIDL1Sv4CmqYThZ9F_" version="14.4.9" type="github">
  <diagram id="vOQ_OQCWlH7t-ZdywU30" name="Page-1">
    <mxGraphModel dx="1422" dy="762" grid="1" gridSize="6" guides="1" tooltips="1" connect="1" arrows="1" fold="1" page="1" pageScale="1" pageWidth="850" pageHeight="1100" math="0" shadow="0">
      <root>
        <mxCell id="0" />
        <mxCell id="1" parent="0" />
        <mxCell id="gSFGx9wujvwKkhdkWuNd-13" value="" style="rounded=0;whiteSpace=wrap;html=1;fillColor=#fff4c3;" parent="1" vertex="1">
          <mxGeometry x="1176" y="468" width="300" height="280" as="geometry" />
        </mxCell>
        <mxCell id="lHB6PhVvGXkUEdD6RR_L-2" value="" style="rounded=0;whiteSpace=wrap;html=1;fillColor=#FFF4C3;" parent="1" vertex="1">
          <mxGeometry x="50" y="130" width="340" height="308" as="geometry" />
        </mxCell>
        <mxCell id="lHB6PhVvGXkUEdD6RR_L-8" value="" style="line;strokeWidth=2;html=1;" parent="1" vertex="1">
          <mxGeometry x="50" y="150" width="340" height="10" as="geometry" />
        </mxCell>
        <mxCell id="lHB6PhVvGXkUEdD6RR_L-9" value="&lt;b&gt;Country Quiz&lt;/b&gt;" style="text;html=1;resizable=0;autosize=1;align=center;verticalAlign=middle;points=[];fillColor=none;strokeColor=none;rounded=0;" parent="1" vertex="1">
          <mxGeometry x="50" y="130" width="90" height="24" as="geometry" />
        </mxCell>
        <mxCell id="lHB6PhVvGXkUEdD6RR_L-10" value="" style="ellipse;whiteSpace=wrap;html=1;aspect=fixed;fillColor=#33FF33;" parent="1" vertex="1">
          <mxGeometry x="312.5" y="132" width="20" height="20" as="geometry" />
        </mxCell>
        <mxCell id="lHB6PhVvGXkUEdD6RR_L-11" value="" style="ellipse;whiteSpace=wrap;html=1;aspect=fixed;fillColor=#FF8000;" parent="1" vertex="1">
          <mxGeometry x="340" y="132" width="20" height="20" as="geometry" />
        </mxCell>
        <mxCell id="lHB6PhVvGXkUEdD6RR_L-12" value="" style="ellipse;whiteSpace=wrap;html=1;aspect=fixed;fillColor=#FF3333;" parent="1" vertex="1">
          <mxGeometry x="366" y="132" width="20" height="20" as="geometry" />
        </mxCell>
        <mxCell id="lHB6PhVvGXkUEdD6RR_L-13" value="&lt;font style=&quot;font-size: 36px&quot;&gt;Country Capital Quiz&lt;/font&gt;" style="text;html=1;strokeColor=none;fillColor=none;align=center;verticalAlign=middle;whiteSpace=wrap;rounded=0;fontSize=33;" parent="1" vertex="1">
          <mxGeometry x="31" y="170" width="378" height="20" as="geometry" />
        </mxCell>
        <mxCell id="lHB6PhVvGXkUEdD6RR_L-14" value="&lt;b&gt;&lt;br&gt;&lt;/b&gt;" style="text;html=1;align=center;verticalAlign=middle;resizable=0;points=[];autosize=1;" parent="1" vertex="1">
          <mxGeometry x="195" y="220" width="20" height="20" as="geometry" />
        </mxCell>
        <mxCell id="JEK3Spol3fVAuOSR0Jdk-1" value="How well do you know the world&#39;s capitals?" style="text;html=1;align=center;verticalAlign=middle;resizable=0;points=[];autosize=1;" parent="1" vertex="1">
          <mxGeometry x="82" y="208" width="246" height="24" as="geometry" />
        </mxCell>
        <mxCell id="JEK3Spol3fVAuOSR0Jdk-2" value="You&#39;ll be presented 15 countries from a list of 195 countries.&lt;br&gt;You need to match the country with their corresponding capital" style="text;html=1;align=center;verticalAlign=middle;resizable=0;points=[];autosize=1;" parent="1" vertex="1">
          <mxGeometry x="44" y="227" width="348" height="36" as="geometry" />
        </mxCell>
        <mxCell id="JEK3Spol3fVAuOSR0Jdk-3" value="Please select the difficulty you wish to play" style="text;html=1;align=center;verticalAlign=middle;resizable=0;points=[];autosize=1;" parent="1" vertex="1">
          <mxGeometry x="98" y="270" width="240" height="20" as="geometry" />
        </mxCell>
        <mxCell id="JEK3Spol3fVAuOSR0Jdk-4" value="&lt;b&gt;Easy&lt;/b&gt;" style="rounded=1;whiteSpace=wrap;html=1;fillColor=#99CCFF;" parent="1" vertex="1">
          <mxGeometry x="60" y="312" width="148" height="66" as="geometry" />
        </mxCell>
        <mxCell id="JEK3Spol3fVAuOSR0Jdk-22" value="" style="rounded=0;whiteSpace=wrap;html=1;fillColor=#fff4c3;" parent="1" vertex="1">
          <mxGeometry x="60" y="530" width="426" height="280" as="geometry" />
        </mxCell>
        <mxCell id="JEK3Spol3fVAuOSR0Jdk-23" value="" style="line;strokeWidth=2;html=1;" parent="1" vertex="1">
          <mxGeometry x="60" y="550" width="426" height="10" as="geometry" />
        </mxCell>
        <mxCell id="JEK3Spol3fVAuOSR0Jdk-24" value="&lt;b&gt;Country Quiz&lt;/b&gt;" style="text;html=1;resizable=0;autosize=1;align=center;verticalAlign=middle;points=[];fillColor=none;strokeColor=none;rounded=0;" parent="1" vertex="1">
          <mxGeometry x="180" y="530" width="90" height="24" as="geometry" />
        </mxCell>
        <mxCell id="JEK3Spol3fVAuOSR0Jdk-25" value="" style="ellipse;whiteSpace=wrap;html=1;aspect=fixed;fillColor=#33FF33;" parent="1" vertex="1">
          <mxGeometry x="396" y="532" width="20" height="20" as="geometry" />
        </mxCell>
        <mxCell id="JEK3Spol3fVAuOSR0Jdk-26" value="" style="ellipse;whiteSpace=wrap;html=1;aspect=fixed;fillColor=#FF8000;" parent="1" vertex="1">
          <mxGeometry x="426" y="532" width="20" height="20" as="geometry" />
        </mxCell>
        <mxCell id="JEK3Spol3fVAuOSR0Jdk-27" value="" style="ellipse;whiteSpace=wrap;html=1;aspect=fixed;fillColor=#FF3333;" parent="1" vertex="1">
          <mxGeometry x="461" y="532" width="20" height="20" as="geometry" />
        </mxCell>
        <mxCell id="JEK3Spol3fVAuOSR0Jdk-29" value="&lt;b&gt;&lt;br&gt;&lt;/b&gt;" style="text;html=1;align=center;verticalAlign=middle;resizable=0;points=[];autosize=1;" parent="1" vertex="1">
          <mxGeometry x="301" y="620" width="20" height="20" as="geometry" />
        </mxCell>
        <mxCell id="JEK3Spol3fVAuOSR0Jdk-33" value="&lt;b&gt;New Zealand&lt;/b&gt;" style="rounded=1;whiteSpace=wrap;html=1;fillColor=#E6E6E6;" parent="1" vertex="1">
          <mxGeometry x="200" y="645" width="115" height="60" as="geometry" />
        </mxCell>
        <mxCell id="JEK3Spol3fVAuOSR0Jdk-34" value="&lt;b&gt;Australia&lt;/b&gt;" style="rounded=1;whiteSpace=wrap;html=1;fillColor=#E6E6E6;" parent="1" vertex="1">
          <mxGeometry x="351" y="645" width="115" height="60" as="geometry" />
        </mxCell>
        <mxCell id="JEK3Spol3fVAuOSR0Jdk-35" value="&lt;b&gt;United States&lt;/b&gt;" style="rounded=1;whiteSpace=wrap;html=1;fillColor=#E6E6E6;" parent="1" vertex="1">
          <mxGeometry x="200" y="725" width="115" height="60" as="geometry" />
        </mxCell>
        <mxCell id="JEK3Spol3fVAuOSR0Jdk-36" value="&lt;b&gt;China&lt;/b&gt;" style="rounded=1;whiteSpace=wrap;html=1;fillColor=#E6E6E6;" parent="1" vertex="1">
          <mxGeometry x="351" y="725" width="115" height="60" as="geometry" />
        </mxCell>
        <mxCell id="JEK3Spol3fVAuOSR0Jdk-38" value="&lt;b&gt;25&lt;/b&gt;" style="ellipse;whiteSpace=wrap;html=1;aspect=fixed;fillColor=#E6E6E6;" parent="1" vertex="1">
          <mxGeometry x="80" y="560" width="80" height="80" as="geometry" />
        </mxCell>
        <mxCell id="JEK3Spol3fVAuOSR0Jdk-42" value="" style="line;strokeWidth=2;html=1;rotation=-90;" parent="1" vertex="1">
          <mxGeometry x="40" y="665" width="280" height="10" as="geometry" />
        </mxCell>
        <mxCell id="JEK3Spol3fVAuOSR0Jdk-43" value="Question x of 15" style="text;html=1;resizable=0;autosize=1;align=center;verticalAlign=middle;points=[];fillColor=none;strokeColor=none;rounded=0;" parent="1" vertex="1">
          <mxGeometry x="65" y="532" width="100" height="20" as="geometry" />
        </mxCell>
        <mxCell id="JEK3Spol3fVAuOSR0Jdk-44" value="" style="ellipse;whiteSpace=wrap;html=1;aspect=fixed;fillColor=#189921;" parent="1" vertex="1">
          <mxGeometry x="72" y="648" width="24" height="24" as="geometry" />
        </mxCell>
        <mxCell id="JEK3Spol3fVAuOSR0Jdk-65" value="&lt;b&gt;Which country has Wellington as its capital&lt;/b&gt;" style="rounded=1;whiteSpace=wrap;html=1;fillColor=#E6E6E6;" parent="1" vertex="1">
          <mxGeometry x="195" y="560" width="279" height="60" as="geometry" />
        </mxCell>
        <mxCell id="JEK3Spol3fVAuOSR0Jdk-66" value="" style="ellipse;whiteSpace=wrap;html=1;aspect=fixed;fillColor=#E6E6E6;" parent="1" vertex="1">
          <mxGeometry x="72" y="678" width="24" height="24" as="geometry" />
        </mxCell>
        <mxCell id="JEK3Spol3fVAuOSR0Jdk-67" value="" style="ellipse;whiteSpace=wrap;html=1;aspect=fixed;fillColor=#E6E6E6;" parent="1" vertex="1">
          <mxGeometry x="72" y="708" width="24" height="24" as="geometry" />
        </mxCell>
        <mxCell id="JEK3Spol3fVAuOSR0Jdk-68" value="" style="ellipse;whiteSpace=wrap;html=1;aspect=fixed;fillColor=#E6E6E6;" parent="1" vertex="1">
          <mxGeometry x="72" y="738" width="24" height="24" as="geometry" />
        </mxCell>
        <mxCell id="JEK3Spol3fVAuOSR0Jdk-69" value="" style="ellipse;whiteSpace=wrap;html=1;aspect=fixed;fillColor=#E6E6E6;" parent="1" vertex="1">
          <mxGeometry x="72" y="768" width="24" height="24" as="geometry" />
        </mxCell>
        <mxCell id="JEK3Spol3fVAuOSR0Jdk-76" value="" style="ellipse;whiteSpace=wrap;html=1;aspect=fixed;fillColor=#FF6857;" parent="1" vertex="1">
          <mxGeometry x="108" y="648" width="24" height="24" as="geometry" />
        </mxCell>
        <mxCell id="JEK3Spol3fVAuOSR0Jdk-77" value="" style="ellipse;whiteSpace=wrap;html=1;aspect=fixed;fillColor=#E6E6E6;" parent="1" vertex="1">
          <mxGeometry x="108" y="678" width="24" height="24" as="geometry" />
        </mxCell>
        <mxCell id="JEK3Spol3fVAuOSR0Jdk-78" value="" style="ellipse;whiteSpace=wrap;html=1;aspect=fixed;fillColor=#E6E6E6;" parent="1" vertex="1">
          <mxGeometry x="108" y="708" width="24" height="24" as="geometry" />
        </mxCell>
        <mxCell id="JEK3Spol3fVAuOSR0Jdk-79" value="" style="ellipse;whiteSpace=wrap;html=1;aspect=fixed;fillColor=#E6E6E6;" parent="1" vertex="1">
          <mxGeometry x="108" y="738" width="24" height="24" as="geometry" />
        </mxCell>
        <mxCell id="JEK3Spol3fVAuOSR0Jdk-80" value="" style="ellipse;whiteSpace=wrap;html=1;aspect=fixed;fillColor=#E6E6E6;" parent="1" vertex="1">
          <mxGeometry x="108" y="768" width="24" height="24" as="geometry" />
        </mxCell>
        <mxCell id="JEK3Spol3fVAuOSR0Jdk-81" value="" style="ellipse;whiteSpace=wrap;html=1;aspect=fixed;fillColor=#E6E6E6;" parent="1" vertex="1">
          <mxGeometry x="144" y="648" width="24" height="24" as="geometry" />
        </mxCell>
        <mxCell id="JEK3Spol3fVAuOSR0Jdk-82" value="" style="ellipse;whiteSpace=wrap;html=1;aspect=fixed;fillColor=#E6E6E6;" parent="1" vertex="1">
          <mxGeometry x="144" y="678" width="24" height="24" as="geometry" />
        </mxCell>
        <mxCell id="JEK3Spol3fVAuOSR0Jdk-83" value="" style="ellipse;whiteSpace=wrap;html=1;aspect=fixed;fillColor=#E6E6E6;" parent="1" vertex="1">
          <mxGeometry x="144" y="708" width="24" height="24" as="geometry" />
        </mxCell>
        <mxCell id="JEK3Spol3fVAuOSR0Jdk-84" value="" style="ellipse;whiteSpace=wrap;html=1;aspect=fixed;fillColor=#E6E6E6;" parent="1" vertex="1">
          <mxGeometry x="144" y="738" width="24" height="24" as="geometry" />
        </mxCell>
        <mxCell id="JEK3Spol3fVAuOSR0Jdk-85" value="" style="ellipse;whiteSpace=wrap;html=1;aspect=fixed;fillColor=#E6E6E6;" parent="1" vertex="1">
          <mxGeometry x="144" y="768" width="24" height="24" as="geometry" />
        </mxCell>
        <mxCell id="g-lcIqmgp_xfqcX1ZjAu-1" value="&lt;b&gt;Hard&lt;/b&gt;" style="rounded=1;whiteSpace=wrap;html=1;fillColor=#FFBAB8;" parent="1" vertex="1">
          <mxGeometry x="232" y="312" width="148" height="66" as="geometry" />
        </mxCell>
        <mxCell id="g-lcIqmgp_xfqcX1ZjAu-2" value="" style="rounded=0;whiteSpace=wrap;html=1;fillColor=#fff4c3;" parent="1" vertex="1">
          <mxGeometry x="566" y="535" width="426" height="280" as="geometry" />
        </mxCell>
        <mxCell id="g-lcIqmgp_xfqcX1ZjAu-3" value="" style="line;strokeWidth=2;html=1;" parent="1" vertex="1">
          <mxGeometry x="566" y="555" width="426" height="10" as="geometry" />
        </mxCell>
        <mxCell id="g-lcIqmgp_xfqcX1ZjAu-4" value="&lt;b&gt;Country Quiz&lt;/b&gt;" style="text;html=1;resizable=0;autosize=1;align=center;verticalAlign=middle;points=[];fillColor=none;strokeColor=none;rounded=0;" parent="1" vertex="1">
          <mxGeometry x="686" y="535" width="90" height="24" as="geometry" />
        </mxCell>
        <mxCell id="g-lcIqmgp_xfqcX1ZjAu-5" value="" style="ellipse;whiteSpace=wrap;html=1;aspect=fixed;fillColor=#33FF33;" parent="1" vertex="1">
          <mxGeometry x="902" y="537" width="20" height="20" as="geometry" />
        </mxCell>
        <mxCell id="g-lcIqmgp_xfqcX1ZjAu-6" value="" style="ellipse;whiteSpace=wrap;html=1;aspect=fixed;fillColor=#FF8000;" parent="1" vertex="1">
          <mxGeometry x="932" y="537" width="20" height="20" as="geometry" />
        </mxCell>
        <mxCell id="g-lcIqmgp_xfqcX1ZjAu-7" value="" style="ellipse;whiteSpace=wrap;html=1;aspect=fixed;fillColor=#FF3333;" parent="1" vertex="1">
          <mxGeometry x="967" y="537" width="20" height="20" as="geometry" />
        </mxCell>
        <mxCell id="g-lcIqmgp_xfqcX1ZjAu-8" value="&lt;b&gt;&lt;br&gt;&lt;/b&gt;" style="text;html=1;align=center;verticalAlign=middle;resizable=0;points=[];autosize=1;" parent="1" vertex="1">
          <mxGeometry x="807" y="625" width="20" height="20" as="geometry" />
        </mxCell>
        <mxCell id="g-lcIqmgp_xfqcX1ZjAu-13" value="&lt;b&gt;25&lt;/b&gt;" style="ellipse;whiteSpace=wrap;html=1;aspect=fixed;fillColor=#E6E6E6;" parent="1" vertex="1">
          <mxGeometry x="586" y="565" width="80" height="80" as="geometry" />
        </mxCell>
        <mxCell id="g-lcIqmgp_xfqcX1ZjAu-14" value="" style="line;strokeWidth=2;html=1;rotation=-90;" parent="1" vertex="1">
          <mxGeometry x="546" y="670" width="280" height="10" as="geometry" />
        </mxCell>
        <mxCell id="g-lcIqmgp_xfqcX1ZjAu-15" value="Question x of 15" style="text;html=1;resizable=0;autosize=1;align=center;verticalAlign=middle;points=[];fillColor=none;strokeColor=none;rounded=0;" parent="1" vertex="1">
          <mxGeometry x="571" y="537" width="100" height="20" as="geometry" />
        </mxCell>
        <mxCell id="g-lcIqmgp_xfqcX1ZjAu-16" value="" style="ellipse;whiteSpace=wrap;html=1;aspect=fixed;fillColor=#189921;" parent="1" vertex="1">
          <mxGeometry x="578" y="653" width="24" height="24" as="geometry" />
        </mxCell>
        <mxCell id="g-lcIqmgp_xfqcX1ZjAu-17" value="&lt;b&gt;Which country has Wellington as its capital&lt;/b&gt;" style="rounded=1;whiteSpace=wrap;html=1;fillColor=#E6E6E6;" parent="1" vertex="1">
          <mxGeometry x="701" y="565" width="283" height="60" as="geometry" />
        </mxCell>
        <mxCell id="g-lcIqmgp_xfqcX1ZjAu-18" value="" style="ellipse;whiteSpace=wrap;html=1;aspect=fixed;fillColor=#E6E6E6;" parent="1" vertex="1">
          <mxGeometry x="578" y="683" width="24" height="24" as="geometry" />
        </mxCell>
        <mxCell id="g-lcIqmgp_xfqcX1ZjAu-19" value="" style="ellipse;whiteSpace=wrap;html=1;aspect=fixed;fillColor=#E6E6E6;" parent="1" vertex="1">
          <mxGeometry x="578" y="713" width="24" height="24" as="geometry" />
        </mxCell>
        <mxCell id="g-lcIqmgp_xfqcX1ZjAu-20" value="" style="ellipse;whiteSpace=wrap;html=1;aspect=fixed;fillColor=#E6E6E6;" parent="1" vertex="1">
          <mxGeometry x="578" y="743" width="24" height="24" as="geometry" />
        </mxCell>
        <mxCell id="g-lcIqmgp_xfqcX1ZjAu-21" value="" style="ellipse;whiteSpace=wrap;html=1;aspect=fixed;fillColor=#E6E6E6;" parent="1" vertex="1">
          <mxGeometry x="578" y="773" width="24" height="24" as="geometry" />
        </mxCell>
        <mxCell id="g-lcIqmgp_xfqcX1ZjAu-22" value="" style="ellipse;whiteSpace=wrap;html=1;aspect=fixed;fillColor=#FF6857;" parent="1" vertex="1">
          <mxGeometry x="614" y="653" width="24" height="24" as="geometry" />
        </mxCell>
        <mxCell id="g-lcIqmgp_xfqcX1ZjAu-23" value="" style="ellipse;whiteSpace=wrap;html=1;aspect=fixed;fillColor=#E6E6E6;" parent="1" vertex="1">
          <mxGeometry x="614" y="683" width="24" height="24" as="geometry" />
        </mxCell>
        <mxCell id="g-lcIqmgp_xfqcX1ZjAu-24" value="" style="ellipse;whiteSpace=wrap;html=1;aspect=fixed;fillColor=#E6E6E6;" parent="1" vertex="1">
          <mxGeometry x="614" y="713" width="24" height="24" as="geometry" />
        </mxCell>
        <mxCell id="g-lcIqmgp_xfqcX1ZjAu-25" value="" style="ellipse;whiteSpace=wrap;html=1;aspect=fixed;fillColor=#E6E6E6;" parent="1" vertex="1">
          <mxGeometry x="614" y="743" width="24" height="24" as="geometry" />
        </mxCell>
        <mxCell id="g-lcIqmgp_xfqcX1ZjAu-26" value="" style="ellipse;whiteSpace=wrap;html=1;aspect=fixed;fillColor=#E6E6E6;" parent="1" vertex="1">
          <mxGeometry x="614" y="773" width="24" height="24" as="geometry" />
        </mxCell>
        <mxCell id="g-lcIqmgp_xfqcX1ZjAu-27" value="" style="ellipse;whiteSpace=wrap;html=1;aspect=fixed;fillColor=#E6E6E6;" parent="1" vertex="1">
          <mxGeometry x="650" y="653" width="24" height="24" as="geometry" />
        </mxCell>
        <mxCell id="g-lcIqmgp_xfqcX1ZjAu-28" value="" style="ellipse;whiteSpace=wrap;html=1;aspect=fixed;fillColor=#E6E6E6;" parent="1" vertex="1">
          <mxGeometry x="650" y="683" width="24" height="24" as="geometry" />
        </mxCell>
        <mxCell id="g-lcIqmgp_xfqcX1ZjAu-29" value="" style="ellipse;whiteSpace=wrap;html=1;aspect=fixed;fillColor=#E6E6E6;" parent="1" vertex="1">
          <mxGeometry x="650" y="713" width="24" height="24" as="geometry" />
        </mxCell>
        <mxCell id="g-lcIqmgp_xfqcX1ZjAu-30" value="" style="ellipse;whiteSpace=wrap;html=1;aspect=fixed;fillColor=#E6E6E6;" parent="1" vertex="1">
          <mxGeometry x="650" y="743" width="24" height="24" as="geometry" />
        </mxCell>
        <mxCell id="g-lcIqmgp_xfqcX1ZjAu-31" value="" style="ellipse;whiteSpace=wrap;html=1;aspect=fixed;fillColor=#E6E6E6;" parent="1" vertex="1">
          <mxGeometry x="650" y="773" width="24" height="24" as="geometry" />
        </mxCell>
        <mxCell id="g-lcIqmgp_xfqcX1ZjAu-33" value="&lt;b&gt;(Answer box)&lt;/b&gt;" style="rounded=1;whiteSpace=wrap;html=1;fillColor=#E6E6E6;" parent="1" vertex="1">
          <mxGeometry x="759" y="661" width="143" height="34" as="geometry" />
        </mxCell>
        <mxCell id="g-lcIqmgp_xfqcX1ZjAu-34" value="&lt;b&gt;Submit&lt;/b&gt;" style="rounded=1;whiteSpace=wrap;html=1;fillColor=#E6E6E6;" parent="1" vertex="1">
          <mxGeometry x="792" y="733" width="77" height="34" as="geometry" />
        </mxCell>
        <mxCell id="g-lcIqmgp_xfqcX1ZjAu-35" value="" style="rounded=0;whiteSpace=wrap;html=1;fillColor=#FFF4C3;" parent="1" vertex="1">
          <mxGeometry x="351.5" y="858" width="340" height="280" as="geometry" />
        </mxCell>
        <mxCell id="g-lcIqmgp_xfqcX1ZjAu-36" value="" style="line;strokeWidth=2;html=1;" parent="1" vertex="1">
          <mxGeometry x="351.5" y="878" width="340" height="10" as="geometry" />
        </mxCell>
        <mxCell id="g-lcIqmgp_xfqcX1ZjAu-37" value="&lt;b&gt;Country Quiz&lt;/b&gt;" style="text;html=1;resizable=0;autosize=1;align=center;verticalAlign=middle;points=[];fillColor=none;strokeColor=none;rounded=0;" parent="1" vertex="1">
          <mxGeometry x="351.5" y="858" width="90" height="24" as="geometry" />
        </mxCell>
        <mxCell id="g-lcIqmgp_xfqcX1ZjAu-38" value="" style="ellipse;whiteSpace=wrap;html=1;aspect=fixed;fillColor=#33FF33;" parent="1" vertex="1">
          <mxGeometry x="614" y="860" width="20" height="20" as="geometry" />
        </mxCell>
        <mxCell id="g-lcIqmgp_xfqcX1ZjAu-39" value="" style="ellipse;whiteSpace=wrap;html=1;aspect=fixed;fillColor=#FF8000;" parent="1" vertex="1">
          <mxGeometry x="641.5" y="860" width="20" height="20" as="geometry" />
        </mxCell>
        <mxCell id="g-lcIqmgp_xfqcX1ZjAu-40" value="" style="ellipse;whiteSpace=wrap;html=1;aspect=fixed;fillColor=#FF3333;" parent="1" vertex="1">
          <mxGeometry x="667.5" y="860" width="20" height="20" as="geometry" />
        </mxCell>
        <mxCell id="g-lcIqmgp_xfqcX1ZjAu-41" value="&lt;span style=&quot;font-size: 36px&quot;&gt;Thanks for playing&lt;/span&gt;" style="text;html=1;strokeColor=none;fillColor=none;align=center;verticalAlign=middle;whiteSpace=wrap;rounded=0;fontSize=33;" parent="1" vertex="1">
          <mxGeometry x="332.5" y="898" width="378" height="20" as="geometry" />
        </mxCell>
        <mxCell id="g-lcIqmgp_xfqcX1ZjAu-42" value="&lt;b&gt;&lt;br&gt;&lt;/b&gt;" style="text;html=1;align=center;verticalAlign=middle;resizable=0;points=[];autosize=1;" parent="1" vertex="1">
          <mxGeometry x="496.5" y="948" width="20" height="20" as="geometry" />
        </mxCell>
        <mxCell id="g-lcIqmgp_xfqcX1ZjAu-43" value="You managed to:" style="text;html=1;align=center;verticalAlign=middle;resizable=0;points=[];autosize=1;" parent="1" vertex="1">
          <mxGeometry x="467.5" y="937" width="108" height="24" as="geometry" />
        </mxCell>
        <mxCell id="g-lcIqmgp_xfqcX1ZjAu-44" value="Get x right out of 15&lt;br&gt;&lt;br&gt;Accuracy percentage :" style="text;html=1;align=center;verticalAlign=middle;resizable=0;points=[];autosize=1;" parent="1" vertex="1">
          <mxGeometry x="453.5" y="964" width="132" height="54" as="geometry" />
        </mxCell>
        <mxCell id="g-lcIqmgp_xfqcX1ZjAu-46" value="&lt;b&gt;Export&lt;/b&gt;" style="rounded=1;whiteSpace=wrap;html=1;fillColor=#99CCFF;" parent="1" vertex="1">
          <mxGeometry x="361.5" y="1040" width="97" height="66" as="geometry" />
        </mxCell>
        <mxCell id="g-lcIqmgp_xfqcX1ZjAu-50" value="&lt;b&gt;Retry&lt;/b&gt;" style="rounded=1;whiteSpace=wrap;html=1;fillColor=#FFFF99;" parent="1" vertex="1">
          <mxGeometry x="471" y="1040" width="97" height="66" as="geometry" />
        </mxCell>
        <mxCell id="g-lcIqmgp_xfqcX1ZjAu-51" value="&lt;b&gt;Quit&lt;/b&gt;" style="rounded=1;whiteSpace=wrap;html=1;fillColor=#FFBAB8;" parent="1" vertex="1">
          <mxGeometry x="579.5" y="1040" width="97" height="66" as="geometry" />
        </mxCell>
        <mxCell id="g-lcIqmgp_xfqcX1ZjAu-53" value="&lt;b&gt;Help&lt;/b&gt;" style="rounded=1;whiteSpace=wrap;html=1;fillColor=#E6E6E6;" parent="1" vertex="1">
          <mxGeometry x="181.25" y="384" width="77.5" height="42" as="geometry" />
        </mxCell>
        <mxCell id="g-lcIqmgp_xfqcX1ZjAu-54" value="" style="rounded=0;whiteSpace=wrap;html=1;fillColor=#FFF4C3;" parent="1" vertex="1">
          <mxGeometry x="755" y="938" width="250" height="166" as="geometry" />
        </mxCell>
        <mxCell id="g-lcIqmgp_xfqcX1ZjAu-55" value="" style="ellipse;whiteSpace=wrap;html=1;aspect=fixed;fontFamily=Courier New;align=center;fillColor=#FF3333;strokeColor=#330000;" parent="1" vertex="1">
          <mxGeometry x="935" y="939" width="20" height="20" as="geometry" />
        </mxCell>
        <mxCell id="g-lcIqmgp_xfqcX1ZjAu-56" value="" style="ellipse;whiteSpace=wrap;html=1;aspect=fixed;fontFamily=Courier New;fontColor=#B5739D;align=center;fillColor=#FFFF33;" parent="1" vertex="1">
          <mxGeometry x="960" y="939" width="20" height="20" as="geometry" />
        </mxCell>
        <mxCell id="g-lcIqmgp_xfqcX1ZjAu-57" value="" style="ellipse;whiteSpace=wrap;html=1;aspect=fixed;fontFamily=Courier New;fontColor=#B5739D;align=center;fillColor=#00CC00;" parent="1" vertex="1">
          <mxGeometry x="985" y="939" width="20" height="20" as="geometry" />
        </mxCell>
        <mxCell id="g-lcIqmgp_xfqcX1ZjAu-59" value="" style="line;strokeWidth=2;html=1;align=center;fontStyle=0;fontFamily=Courier New;strokeColor=#9673a6;fillColor=#FFB570;" parent="1" vertex="1">
          <mxGeometry x="755" y="958" width="250" height="10" as="geometry" />
        </mxCell>
        <mxCell id="g-lcIqmgp_xfqcX1ZjAu-60" value="&lt;i&gt;&lt;font style=&quot;font-size: 10px&quot;&gt;Please enter your desired filename below.&lt;br&gt;Your quiz history will be exported as a .txt file.&lt;/font&gt;&lt;br&gt;&lt;/i&gt;" style="text;html=1;resizable=0;autosize=1;align=center;verticalAlign=middle;points=[];fillColor=none;strokeColor=none;rounded=0;" parent="1" vertex="1">
          <mxGeometry x="772" y="958" width="216" height="42" as="geometry" />
        </mxCell>
        <mxCell id="g-lcIqmgp_xfqcX1ZjAu-61" value="" style="rounded=0;whiteSpace=wrap;html=1;strokeColor=#FF3333;fillColor=#FFFFFF;" parent="1" vertex="1">
          <mxGeometry x="792" y="1020" width="185" height="40" as="geometry" />
        </mxCell>
        <mxCell id="g-lcIqmgp_xfqcX1ZjAu-62" value="Save" style="rounded=0;whiteSpace=wrap;html=1;strokeColor=#FF3333;fillColor=#E1D5E7;" parent="1" vertex="1">
          <mxGeometry x="776" y="1068" width="120" height="20" as="geometry" />
        </mxCell>
        <mxCell id="g-lcIqmgp_xfqcX1ZjAu-63" value="Close" style="rounded=0;whiteSpace=wrap;html=1;strokeColor=#FF3333;fillColor=#E1D5E7;" parent="1" vertex="1">
          <mxGeometry x="905" y="1068" width="90" height="20" as="geometry" />
        </mxCell>
        <mxCell id="g-lcIqmgp_xfqcX1ZjAu-65" value="&lt;b&gt;Country Quiz&lt;/b&gt;" style="text;html=1;resizable=0;autosize=1;align=center;verticalAlign=middle;points=[];fillColor=none;strokeColor=none;rounded=0;" parent="1" vertex="1">
          <mxGeometry x="755" y="937" width="90" height="24" as="geometry" />
        </mxCell>
        <mxCell id="g-lcIqmgp_xfqcX1ZjAu-67" value="" style="rounded=0;whiteSpace=wrap;html=1;fillColor=#FFF4C3;" parent="1" vertex="1">
          <mxGeometry x="451" y="227" width="270" height="229" as="geometry" />
        </mxCell>
        <mxCell id="g-lcIqmgp_xfqcX1ZjAu-69" value="" style="ellipse;whiteSpace=wrap;html=1;aspect=fixed;fontFamily=Courier New;align=center;fillColor=#FF3333;strokeColor=#330000;" parent="1" vertex="1">
          <mxGeometry x="651" y="228" width="20" height="20" as="geometry" />
        </mxCell>
        <mxCell id="g-lcIqmgp_xfqcX1ZjAu-70" value="" style="ellipse;whiteSpace=wrap;html=1;aspect=fixed;fontFamily=Courier New;fontColor=#B5739D;align=center;fillColor=#FFFF33;" parent="1" vertex="1">
          <mxGeometry x="676" y="228" width="20" height="20" as="geometry" />
        </mxCell>
        <mxCell id="g-lcIqmgp_xfqcX1ZjAu-71" value="" style="ellipse;whiteSpace=wrap;html=1;aspect=fixed;fontFamily=Courier New;fontColor=#B5739D;align=center;fillColor=#00CC00;" parent="1" vertex="1">
          <mxGeometry x="701" y="228" width="20" height="20" as="geometry" />
        </mxCell>
        <mxCell id="g-lcIqmgp_xfqcX1ZjAu-72" value="" style="line;strokeWidth=2;html=1;align=center;fontStyle=0;fontFamily=Courier New;strokeColor=#9673a6;fillColor=#FFB570;" parent="1" vertex="1">
          <mxGeometry x="451" y="245" width="270" height="10" as="geometry" />
        </mxCell>
        <mxCell id="g-lcIqmgp_xfqcX1ZjAu-73" value="&lt;h1&gt;&lt;font style=&quot;font-size: 24px&quot;&gt;Help/Information&lt;/font&gt;&lt;/h1&gt;" style="text;html=1;resizable=0;autosize=1;align=center;verticalAlign=middle;points=[];fillColor=none;strokeColor=none;rounded=0;" parent="1" vertex="1">
          <mxGeometry x="481" y="240" width="210" height="50" as="geometry" />
        </mxCell>
        <mxCell id="g-lcIqmgp_xfqcX1ZjAu-74" value="&lt;br&gt;The quiz will present you with a capital and you&amp;nbsp;&lt;br&gt;must identify the corresponding country.&lt;br&gt;&lt;br&gt;The game has a 30 second timer for each round&lt;br&gt;There are a total of 15 rounds.&lt;br&gt;&lt;br&gt;In easy mode it is a multi choice quiz whereas in&lt;br&gt;hard mode you will have to type in the country.&amp;nbsp;" style="text;html=1;resizable=0;autosize=1;align=center;verticalAlign=middle;points=[];fillColor=none;strokeColor=none;rounded=0;" parent="1" vertex="1">
          <mxGeometry x="451" y="270" width="270" height="138" as="geometry" />
        </mxCell>
        <mxCell id="g-lcIqmgp_xfqcX1ZjAu-75" value="Dismiss" style="rounded=0;whiteSpace=wrap;html=1;fillColor=#E6E6E6;" parent="1" vertex="1">
          <mxGeometry x="526" y="420" width="120" height="20" as="geometry" />
        </mxCell>
        <mxCell id="g-lcIqmgp_xfqcX1ZjAu-76" value="&lt;b&gt;Country Quiz&lt;/b&gt;" style="text;html=1;resizable=0;autosize=1;align=center;verticalAlign=middle;points=[];fillColor=none;strokeColor=none;rounded=0;" parent="1" vertex="1">
          <mxGeometry x="451" y="226" width="90" height="24" as="geometry" />
        </mxCell>
        <mxCell id="g-lcIqmgp_xfqcX1ZjAu-78" value="&lt;font color=&quot;#ff0000&quot; style=&quot;font-size: 10px&quot;&gt;Identically named files will be overwritten&lt;/font&gt;" style="text;html=1;align=center;verticalAlign=middle;resizable=0;points=[];autosize=1;" parent="1" vertex="1">
          <mxGeometry x="781" y="990" width="198" height="24" as="geometry" />
        </mxCell>
        <mxCell id="g-lcIqmgp_xfqcX1ZjAu-79" value="Start" style="swimlane;fontStyle=1;childLayout=stackLayout;horizontal=1;startSize=26;fillColor=none;horizontalStack=0;resizeParent=1;resizeParentMax=0;resizeLast=0;collapsible=1;marginBottom=0;" parent="1" vertex="1">
          <mxGeometry x="514" y="1308" width="140" height="130" as="geometry" />
        </mxCell>
        <mxCell id="g-lcIqmgp_xfqcX1ZjAu-80" value="__init__ GUI&#xa;" style="text;strokeColor=none;fillColor=none;align=left;verticalAlign=top;spacingLeft=4;spacingRight=4;overflow=hidden;rotatable=0;points=[[0,0.5],[1,0.5]];portConstraint=eastwest;" parent="g-lcIqmgp_xfqcX1ZjAu-79" vertex="1">
          <mxGeometry y="26" width="140" height="26" as="geometry" />
        </mxCell>
        <mxCell id="g-lcIqmgp_xfqcX1ZjAu-81" value="to_help (disable)&#xa;" style="text;strokeColor=none;fillColor=none;align=left;verticalAlign=top;spacingLeft=4;spacingRight=4;overflow=hidden;rotatable=0;points=[[0,0.5],[1,0.5]];portConstraint=eastwest;" parent="g-lcIqmgp_xfqcX1ZjAu-79" vertex="1">
          <mxGeometry y="52" width="140" height="26" as="geometry" />
        </mxCell>
        <mxCell id="g-lcIqmgp_xfqcX1ZjAu-82" value="to_easy&#xa;&#xa;to_hard" style="text;strokeColor=none;fillColor=none;align=left;verticalAlign=top;spacingLeft=4;spacingRight=4;overflow=hidden;rotatable=0;points=[[0,0.5],[1,0.5]];portConstraint=eastwest;" parent="g-lcIqmgp_xfqcX1ZjAu-79" vertex="1">
          <mxGeometry y="78" width="140" height="52" as="geometry" />
        </mxCell>
        <mxCell id="g-lcIqmgp_xfqcX1ZjAu-83" value="Easy" style="swimlane;fontStyle=1;childLayout=stackLayout;horizontal=1;startSize=26;fillColor=none;horizontalStack=0;resizeParent=1;resizeParentMax=0;resizeLast=0;collapsible=1;marginBottom=0;" parent="1" vertex="1">
          <mxGeometry x="306" y="1470" width="140" height="204" as="geometry" />
        </mxCell>
        <mxCell id="g-lcIqmgp_xfqcX1ZjAu-84" value="find_list" style="text;strokeColor=none;fillColor=none;align=left;verticalAlign=top;spacingLeft=4;spacingRight=4;overflow=hidden;rotatable=0;points=[[0,0.5],[1,0.5]];portConstraint=eastwest;" parent="g-lcIqmgp_xfqcX1ZjAu-83" vertex="1">
          <mxGeometry y="26" width="140" height="26" as="geometry" />
        </mxCell>
        <mxCell id="g-lcIqmgp_xfqcX1ZjAu-85" value="__init__ GUI" style="text;strokeColor=none;fillColor=none;align=left;verticalAlign=top;spacingLeft=4;spacingRight=4;overflow=hidden;rotatable=0;points=[[0,0.5],[1,0.5]];portConstraint=eastwest;" parent="g-lcIqmgp_xfqcX1ZjAu-83" vertex="1">
          <mxGeometry y="52" width="140" height="26" as="geometry" />
        </mxCell>
        <mxCell id="g-lcIqmgp_xfqcX1ZjAu-111" style="edgeStyle=orthogonalEdgeStyle;rounded=0;orthogonalLoop=1;jettySize=auto;html=1;entryX=0.001;entryY=0.083;entryDx=0;entryDy=0;entryPerimeter=0;" parent="g-lcIqmgp_xfqcX1ZjAu-83" source="g-lcIqmgp_xfqcX1ZjAu-86" target="g-lcIqmgp_xfqcX1ZjAu-83" edge="1">
          <mxGeometry relative="1" as="geometry">
            <mxPoint x="-78" y="6" as="targetPoint" />
            <Array as="points">
              <mxPoint x="-96" y="150" />
              <mxPoint x="-96" y="17" />
            </Array>
          </mxGeometry>
        </mxCell>
        <mxCell id="g-lcIqmgp_xfqcX1ZjAu-86" value="make_stats&#xa;&#xa;time_going_down&#xa;&#xa;to_next_question&#xa;&#xa;to_stats (after quiz &#xa;               completed)" style="text;strokeColor=none;fillColor=none;align=left;verticalAlign=top;spacingLeft=4;spacingRight=4;overflow=hidden;rotatable=0;points=[[0,0.5],[1,0.5]];portConstraint=eastwest;" parent="g-lcIqmgp_xfqcX1ZjAu-83" vertex="1">
          <mxGeometry y="78" width="140" height="126" as="geometry" />
        </mxCell>
        <mxCell id="g-lcIqmgp_xfqcX1ZjAu-87" value="Help" style="swimlane;fontStyle=1;childLayout=stackLayout;horizontal=1;startSize=26;fillColor=none;horizontalStack=0;resizeParent=1;resizeParentMax=0;resizeLast=0;collapsible=1;marginBottom=0;" parent="1" vertex="1">
          <mxGeometry x="721" y="1236" width="140" height="78" as="geometry" />
        </mxCell>
        <mxCell id="g-lcIqmgp_xfqcX1ZjAu-88" value="__init__(GUI)" style="text;strokeColor=none;fillColor=none;align=left;verticalAlign=top;spacingLeft=4;spacingRight=4;overflow=hidden;rotatable=0;points=[[0,0.5],[1,0.5]];portConstraint=eastwest;" parent="g-lcIqmgp_xfqcX1ZjAu-87" vertex="1">
          <mxGeometry y="26" width="140" height="26" as="geometry" />
        </mxCell>
        <mxCell id="g-lcIqmgp_xfqcX1ZjAu-89" value="close_help" style="text;strokeColor=none;fillColor=none;align=left;verticalAlign=top;spacingLeft=4;spacingRight=4;overflow=hidden;rotatable=0;points=[[0,0.5],[1,0.5]];portConstraint=eastwest;" parent="g-lcIqmgp_xfqcX1ZjAu-87" vertex="1">
          <mxGeometry y="52" width="140" height="26" as="geometry" />
        </mxCell>
        <mxCell id="g-lcIqmgp_xfqcX1ZjAu-126" style="edgeStyle=orthogonalEdgeStyle;rounded=0;orthogonalLoop=1;jettySize=auto;html=1;entryX=0.005;entryY=0.144;entryDx=0;entryDy=0;entryPerimeter=0;" parent="1" source="g-lcIqmgp_xfqcX1ZjAu-90" target="g-lcIqmgp_xfqcX1ZjAu-94" edge="1">
          <mxGeometry relative="1" as="geometry" />
        </mxCell>
        <mxCell id="g-lcIqmgp_xfqcX1ZjAu-90" value="Statistics" style="swimlane;fontStyle=1;childLayout=stackLayout;horizontal=1;startSize=30;fillColor=none;horizontalStack=0;resizeParent=1;resizeParentMax=0;resizeLast=0;collapsible=1;marginBottom=0;" parent="1" vertex="1">
          <mxGeometry x="514" y="1722" width="140" height="138" as="geometry" />
        </mxCell>
        <mxCell id="g-lcIqmgp_xfqcX1ZjAu-121" value="&lt;div style=&quot;text-align: left&quot;&gt;&lt;span&gt;__init__(GUI)&lt;/span&gt;&lt;/div&gt;&lt;div style=&quot;text-align: left&quot;&gt;&lt;span&gt;&lt;br&gt;&lt;/span&gt;&lt;/div&gt;to_export(close)&lt;br&gt;&lt;br&gt;to_retry(restart)&lt;br&gt;&lt;br&gt;close_stats" style="text;html=1;align=center;verticalAlign=middle;resizable=0;points=[];autosize=1;" parent="g-lcIqmgp_xfqcX1ZjAu-90" vertex="1">
          <mxGeometry y="30" width="140" height="108" as="geometry" />
        </mxCell>
        <mxCell id="g-lcIqmgp_xfqcX1ZjAu-94" value="Export" style="swimlane;fontStyle=1;childLayout=stackLayout;horizontal=1;startSize=26;fillColor=none;horizontalStack=0;resizeParent=1;resizeParentMax=0;resizeLast=0;collapsible=1;marginBottom=0;" parent="1" vertex="1">
          <mxGeometry x="691" y="1776" width="140" height="104" as="geometry" />
        </mxCell>
        <mxCell id="g-lcIqmgp_xfqcX1ZjAu-95" value="__init__(GUI)" style="text;strokeColor=none;fillColor=none;align=left;verticalAlign=top;spacingLeft=4;spacingRight=4;overflow=hidden;rotatable=0;points=[[0,0.5],[1,0.5]];portConstraint=eastwest;" parent="g-lcIqmgp_xfqcX1ZjAu-94" vertex="1">
          <mxGeometry y="26" width="140" height="26" as="geometry" />
        </mxCell>
        <mxCell id="g-lcIqmgp_xfqcX1ZjAu-96" value="export_txt" style="text;strokeColor=none;fillColor=none;align=left;verticalAlign=top;spacingLeft=4;spacingRight=4;overflow=hidden;rotatable=0;points=[[0,0.5],[1,0.5]];portConstraint=eastwest;" parent="g-lcIqmgp_xfqcX1ZjAu-94" vertex="1">
          <mxGeometry y="52" width="140" height="26" as="geometry" />
        </mxCell>
        <mxCell id="g-lcIqmgp_xfqcX1ZjAu-97" value="close_export" style="text;strokeColor=none;fillColor=none;align=left;verticalAlign=top;spacingLeft=4;spacingRight=4;overflow=hidden;rotatable=0;points=[[0,0.5],[1,0.5]];portConstraint=eastwest;" parent="g-lcIqmgp_xfqcX1ZjAu-94" vertex="1">
          <mxGeometry y="78" width="140" height="26" as="geometry" />
        </mxCell>
        <mxCell id="g-lcIqmgp_xfqcX1ZjAu-107" style="edgeStyle=orthogonalEdgeStyle;rounded=0;orthogonalLoop=1;jettySize=auto;html=1;" parent="1" edge="1">
          <mxGeometry relative="1" as="geometry">
            <mxPoint x="721" y="1247.9999999999998" as="targetPoint" />
            <mxPoint x="654" y="1372.9999999999998" as="sourcePoint" />
            <Array as="points">
              <mxPoint x="690" y="1373" />
              <mxPoint x="690" y="1248" />
            </Array>
          </mxGeometry>
        </mxCell>
        <mxCell id="g-lcIqmgp_xfqcX1ZjAu-109" style="edgeStyle=orthogonalEdgeStyle;rounded=0;orthogonalLoop=1;jettySize=auto;html=1;entryX=0.552;entryY=0.002;entryDx=0;entryDy=0;entryPerimeter=0;" parent="1" target="g-lcIqmgp_xfqcX1ZjAu-83" edge="1">
          <mxGeometry relative="1" as="geometry">
            <mxPoint x="382.72" y="1467.816" as="targetPoint" />
            <mxPoint x="514" y="1400.9999999999998" as="sourcePoint" />
            <Array as="points">
              <mxPoint x="383" y="1401" />
              <mxPoint x="383" y="1409" />
              <mxPoint x="383" y="1409" />
            </Array>
          </mxGeometry>
        </mxCell>
        <mxCell id="g-lcIqmgp_xfqcX1ZjAu-112" style="edgeStyle=orthogonalEdgeStyle;rounded=0;orthogonalLoop=1;jettySize=auto;html=1;entryX=0.535;entryY=0.006;entryDx=0;entryDy=0;entryPerimeter=0;" parent="1" source="g-lcIqmgp_xfqcX1ZjAu-86" target="g-lcIqmgp_xfqcX1ZjAu-90" edge="1">
          <mxGeometry relative="1" as="geometry">
            <Array as="points">
              <mxPoint x="589" y="1650" />
            </Array>
          </mxGeometry>
        </mxCell>
        <mxCell id="g-lcIqmgp_xfqcX1ZjAu-113" value="Hard" style="swimlane;fontStyle=1;childLayout=stackLayout;horizontal=1;startSize=26;fillColor=none;horizontalStack=0;resizeParent=1;resizeParentMax=0;resizeLast=0;collapsible=1;marginBottom=0;" parent="1" vertex="1">
          <mxGeometry x="714" y="1473" width="140" height="204" as="geometry" />
        </mxCell>
        <mxCell id="g-lcIqmgp_xfqcX1ZjAu-114" value="find_list" style="text;strokeColor=none;fillColor=none;align=left;verticalAlign=top;spacingLeft=4;spacingRight=4;overflow=hidden;rotatable=0;points=[[0,0.5],[1,0.5]];portConstraint=eastwest;" parent="g-lcIqmgp_xfqcX1ZjAu-113" vertex="1">
          <mxGeometry y="26" width="140" height="26" as="geometry" />
        </mxCell>
        <mxCell id="g-lcIqmgp_xfqcX1ZjAu-115" value="__init__ GUI" style="text;strokeColor=none;fillColor=none;align=left;verticalAlign=top;spacingLeft=4;spacingRight=4;overflow=hidden;rotatable=0;points=[[0,0.5],[1,0.5]];portConstraint=eastwest;" parent="g-lcIqmgp_xfqcX1ZjAu-113" vertex="1">
          <mxGeometry y="52" width="140" height="26" as="geometry" />
        </mxCell>
        <mxCell id="g-lcIqmgp_xfqcX1ZjAu-117" value="make_stats&#xa;&#xa;time_going_down&#xa;&#xa;to_next_question&#xa;&#xa;to_stats (after quiz &#xa;               completed)" style="text;strokeColor=none;fillColor=none;align=left;verticalAlign=top;spacingLeft=4;spacingRight=4;overflow=hidden;rotatable=0;points=[[0,0.5],[1,0.5]];portConstraint=eastwest;" parent="g-lcIqmgp_xfqcX1ZjAu-113" vertex="1">
          <mxGeometry y="78" width="140" height="126" as="geometry" />
        </mxCell>
        <mxCell id="g-lcIqmgp_xfqcX1ZjAu-119" style="edgeStyle=orthogonalEdgeStyle;rounded=0;orthogonalLoop=1;jettySize=auto;html=1;entryX=1.013;entryY=0.062;entryDx=0;entryDy=0;entryPerimeter=0;" parent="g-lcIqmgp_xfqcX1ZjAu-113" source="g-lcIqmgp_xfqcX1ZjAu-117" target="g-lcIqmgp_xfqcX1ZjAu-113" edge="1">
          <mxGeometry relative="1" as="geometry">
            <mxPoint x="246" y="-24" as="targetPoint" />
            <Array as="points">
              <mxPoint x="246" y="150" />
              <mxPoint x="246" y="13" />
            </Array>
          </mxGeometry>
        </mxCell>
        <mxCell id="g-lcIqmgp_xfqcX1ZjAu-118" style="edgeStyle=orthogonalEdgeStyle;rounded=0;orthogonalLoop=1;jettySize=auto;html=1;" parent="1" edge="1">
          <mxGeometry relative="1" as="geometry">
            <mxPoint x="654" y="1427.0285714285715" as="sourcePoint" />
            <mxPoint x="786" y="1471" as="targetPoint" />
            <Array as="points">
              <mxPoint x="786" y="1427" />
              <mxPoint x="786" y="1471" />
            </Array>
          </mxGeometry>
        </mxCell>
        <mxCell id="g-lcIqmgp_xfqcX1ZjAu-120" style="edgeStyle=orthogonalEdgeStyle;rounded=0;orthogonalLoop=1;jettySize=auto;html=1;entryX=0.535;entryY=0.011;entryDx=0;entryDy=0;entryPerimeter=0;" parent="1" source="g-lcIqmgp_xfqcX1ZjAu-117" target="g-lcIqmgp_xfqcX1ZjAu-90" edge="1">
          <mxGeometry relative="1" as="geometry">
            <Array as="points">
              <mxPoint x="589" y="1650" />
            </Array>
          </mxGeometry>
        </mxCell>
        <mxCell id="g-lcIqmgp_xfqcX1ZjAu-127" style="edgeStyle=orthogonalEdgeStyle;rounded=0;orthogonalLoop=1;jettySize=auto;html=1;entryX=0;entryY=0.093;entryDx=0;entryDy=0;entryPerimeter=0;" parent="1" target="g-lcIqmgp_xfqcX1ZjAu-79" edge="1">
          <mxGeometry relative="1" as="geometry">
            <mxPoint x="120" y="1402" as="targetPoint" />
            <mxPoint x="514.0000000000001" y="1822" as="sourcePoint" />
            <Array as="points">
              <mxPoint x="120" y="1822" />
              <mxPoint x="120" y="1320" />
            </Array>
          </mxGeometry>
        </mxCell>
        <mxCell id="gSFGx9wujvwKkhdkWuNd-1" value="Question x of 15" style="text;html=1;resizable=0;autosize=1;align=center;verticalAlign=middle;points=[];fillColor=none;strokeColor=none;rounded=0;" parent="1" vertex="1">
          <mxGeometry x="280" y="623" width="100" height="20" as="geometry" />
        </mxCell>
        <mxCell id="gSFGx9wujvwKkhdkWuNd-2" value="Question x of 15" style="text;html=1;resizable=0;autosize=1;align=center;verticalAlign=middle;points=[];fillColor=none;strokeColor=none;rounded=0;" parent="1" vertex="1">
          <mxGeometry x="786" y="633" width="100" height="20" as="geometry" />
        </mxCell>
        <mxCell id="gSFGx9wujvwKkhdkWuNd-3" value="" style="ellipse;whiteSpace=wrap;html=1;aspect=fixed;fillColor=#33FF33;" parent="1" vertex="1">
          <mxGeometry x="1383" y="473.5" width="20" height="20" as="geometry" />
        </mxCell>
        <mxCell id="gSFGx9wujvwKkhdkWuNd-4" value="" style="ellipse;whiteSpace=wrap;html=1;aspect=fixed;fillColor=#FF8000;" parent="1" vertex="1">
          <mxGeometry x="1413" y="473.5" width="20" height="20" as="geometry" />
        </mxCell>
        <mxCell id="gSFGx9wujvwKkhdkWuNd-5" value="" style="ellipse;whiteSpace=wrap;html=1;aspect=fixed;fillColor=#FF3333;" parent="1" vertex="1">
          <mxGeometry x="1448" y="473.5" width="20" height="20" as="geometry" />
        </mxCell>
        <mxCell id="gSFGx9wujvwKkhdkWuNd-6" value="&lt;b&gt;&lt;br&gt;&lt;/b&gt;" style="text;html=1;align=center;verticalAlign=middle;resizable=0;points=[];autosize=1;" parent="1" vertex="1">
          <mxGeometry x="1288" y="561.5" width="20" height="20" as="geometry" />
        </mxCell>
        <mxCell id="gSFGx9wujvwKkhdkWuNd-7" value="&lt;b&gt;New Zealand&lt;/b&gt;" style="rounded=1;whiteSpace=wrap;html=1;fillColor=#E6E6E6;" parent="1" vertex="1">
          <mxGeometry x="1187" y="586.5" width="115" height="60" as="geometry" />
        </mxCell>
        <mxCell id="gSFGx9wujvwKkhdkWuNd-8" value="&lt;b&gt;Australia&lt;/b&gt;" style="rounded=1;whiteSpace=wrap;html=1;fillColor=#E6E6E6;" parent="1" vertex="1">
          <mxGeometry x="1338" y="586.5" width="115" height="60" as="geometry" />
        </mxCell>
        <mxCell id="gSFGx9wujvwKkhdkWuNd-9" value="&lt;b&gt;United States&lt;/b&gt;" style="rounded=1;whiteSpace=wrap;html=1;fillColor=#E6E6E6;" parent="1" vertex="1">
          <mxGeometry x="1187" y="666.5" width="115" height="60" as="geometry" />
        </mxCell>
        <mxCell id="gSFGx9wujvwKkhdkWuNd-10" value="&lt;b&gt;China&lt;/b&gt;" style="rounded=1;whiteSpace=wrap;html=1;fillColor=#E6E6E6;" parent="1" vertex="1">
          <mxGeometry x="1338" y="666.5" width="115" height="60" as="geometry" />
        </mxCell>
        <mxCell id="gSFGx9wujvwKkhdkWuNd-11" value="&lt;b&gt;Which country has Wellington as its capital&lt;/b&gt;" style="rounded=1;whiteSpace=wrap;html=1;fillColor=#E6E6E6;" parent="1" vertex="1">
          <mxGeometry x="1182" y="501.5" width="279" height="60" as="geometry" />
        </mxCell>
        <mxCell id="gSFGx9wujvwKkhdkWuNd-12" value="Question x of 15" style="text;html=1;resizable=0;autosize=1;align=center;verticalAlign=middle;points=[];fillColor=none;strokeColor=none;rounded=0;" parent="1" vertex="1">
          <mxGeometry x="1267" y="564.5" width="100" height="20" as="geometry" />
        </mxCell>
        <mxCell id="gSFGx9wujvwKkhdkWuNd-14" value="&lt;b&gt;Country Quiz&lt;/b&gt;" style="text;html=1;resizable=0;autosize=1;align=center;verticalAlign=middle;points=[];fillColor=none;strokeColor=none;rounded=0;" parent="1" vertex="1">
          <mxGeometry x="1176" y="469.5" width="90" height="24" as="geometry" />
        </mxCell>
        <mxCell id="gSFGx9wujvwKkhdkWuNd-15" value="" style="line;strokeWidth=2;html=1;" parent="1" vertex="1">
          <mxGeometry x="1176" y="491.5" width="300" height="10" as="geometry" />
        </mxCell>
        <mxCell id="NtRwRhiNoUlh-8ukEZx0-6" style="edgeStyle=orthogonalEdgeStyle;rounded=0;orthogonalLoop=1;jettySize=auto;html=1;" edge="1" parent="1" source="NtRwRhiNoUlh-8ukEZx0-5" target="NtRwRhiNoUlh-8ukEZx0-15">
          <mxGeometry relative="1" as="geometry">
            <mxPoint x="2250" y="1158" as="targetPoint" />
          </mxGeometry>
        </mxCell>
        <mxCell id="NtRwRhiNoUlh-8ukEZx0-12" style="edgeStyle=orthogonalEdgeStyle;rounded=0;orthogonalLoop=1;jettySize=auto;html=1;" edge="1" parent="1" source="NtRwRhiNoUlh-8ukEZx0-5" target="NtRwRhiNoUlh-8ukEZx0-13">
          <mxGeometry relative="1" as="geometry">
            <mxPoint x="1932" y="1272" as="targetPoint" />
            <Array as="points">
              <mxPoint x="2084" y="1222" />
            </Array>
          </mxGeometry>
        </mxCell>
        <mxCell id="NtRwRhiNoUlh-8ukEZx0-126" value="X on top right" style="edgeStyle=orthogonalEdgeStyle;rounded=0;orthogonalLoop=1;jettySize=auto;html=1;" edge="1" parent="1" source="NtRwRhiNoUlh-8ukEZx0-5" target="NtRwRhiNoUlh-8ukEZx0-127">
          <mxGeometry relative="1" as="geometry">
            <mxPoint x="1830" y="1254" as="targetPoint" />
          </mxGeometry>
        </mxCell>
        <mxCell id="NtRwRhiNoUlh-8ukEZx0-5" value="Start" style="strokeWidth=2;html=1;shape=mxgraph.flowchart.start_1;whiteSpace=wrap;" vertex="1" parent="1">
          <mxGeometry x="2034" y="1128" width="100" height="60" as="geometry" />
        </mxCell>
        <mxCell id="NtRwRhiNoUlh-8ukEZx0-11" value="Dismiss / X on top right" style="edgeStyle=orthogonalEdgeStyle;rounded=0;orthogonalLoop=1;jettySize=auto;html=1;entryX=0.5;entryY=0;entryDx=0;entryDy=0;entryPerimeter=0;exitX=0.466;exitY=-0.017;exitDx=0;exitDy=0;exitPerimeter=0;" edge="1" parent="1" source="NtRwRhiNoUlh-8ukEZx0-15" target="NtRwRhiNoUlh-8ukEZx0-5">
          <mxGeometry relative="1" as="geometry">
            <mxPoint x="2250" y="1020" as="targetPoint" />
            <mxPoint x="2300" y="1128" as="sourcePoint" />
            <Array as="points">
              <mxPoint x="2291" y="1074" />
              <mxPoint x="2084" y="1074" />
            </Array>
          </mxGeometry>
        </mxCell>
        <mxCell id="NtRwRhiNoUlh-8ukEZx0-19" value="Left Blank / Positive Integer entered" style="edgeStyle=orthogonalEdgeStyle;rounded=0;orthogonalLoop=1;jettySize=auto;html=1;" edge="1" parent="1" source="NtRwRhiNoUlh-8ukEZx0-13" target="NtRwRhiNoUlh-8ukEZx0-24">
          <mxGeometry relative="1" as="geometry">
            <mxPoint x="1920" y="1362" as="targetPoint" />
          </mxGeometry>
        </mxCell>
        <mxCell id="NtRwRhiNoUlh-8ukEZx0-20" value="Anything else entered" style="edgeStyle=orthogonalEdgeStyle;rounded=0;orthogonalLoop=1;jettySize=auto;html=1;" edge="1" parent="1" source="NtRwRhiNoUlh-8ukEZx0-13" target="NtRwRhiNoUlh-8ukEZx0-22">
          <mxGeometry relative="1" as="geometry">
            <mxPoint x="2316" y="1252" as="targetPoint" />
          </mxGeometry>
        </mxCell>
        <mxCell id="NtRwRhiNoUlh-8ukEZx0-13" value="Rounds" style="rounded=1;whiteSpace=wrap;html=1;absoluteArcSize=1;arcSize=14;strokeWidth=2;" vertex="1" parent="1">
          <mxGeometry x="2034" y="1230" width="100" height="44" as="geometry" />
        </mxCell>
        <mxCell id="NtRwRhiNoUlh-8ukEZx0-15" value="Help" style="rounded=1;whiteSpace=wrap;html=1;absoluteArcSize=1;arcSize=14;strokeWidth=2;" vertex="1" parent="1">
          <mxGeometry x="2244" y="1140" width="100" height="36" as="geometry" />
        </mxCell>
        <mxCell id="NtRwRhiNoUlh-8ukEZx0-22" value="Error label turns red.&lt;br&gt;Does not proceed" style="strokeWidth=2;html=1;shape=mxgraph.flowchart.terminator;whiteSpace=wrap;" vertex="1" parent="1">
          <mxGeometry x="2310" y="1222" width="126" height="60" as="geometry" />
        </mxCell>
        <mxCell id="NtRwRhiNoUlh-8ukEZx0-25" value="Easy Mode" style="edgeStyle=orthogonalEdgeStyle;rounded=0;orthogonalLoop=1;jettySize=auto;html=1;" edge="1" parent="1" source="NtRwRhiNoUlh-8ukEZx0-24" target="NtRwRhiNoUlh-8ukEZx0-27">
          <mxGeometry relative="1" as="geometry">
            <mxPoint x="1938" y="1476" as="targetPoint" />
          </mxGeometry>
        </mxCell>
        <mxCell id="NtRwRhiNoUlh-8ukEZx0-26" value="Hard Mode" style="edgeStyle=orthogonalEdgeStyle;rounded=0;orthogonalLoop=1;jettySize=auto;html=1;" edge="1" parent="1" source="NtRwRhiNoUlh-8ukEZx0-24" target="NtRwRhiNoUlh-8ukEZx0-36">
          <mxGeometry relative="1" as="geometry">
            <mxPoint x="2250" y="1410" as="targetPoint" />
          </mxGeometry>
        </mxCell>
        <mxCell id="NtRwRhiNoUlh-8ukEZx0-24" value="Round count is accepted.&amp;nbsp;" style="rounded=1;whiteSpace=wrap;html=1;absoluteArcSize=1;arcSize=14;strokeWidth=2;" vertex="1" parent="1">
          <mxGeometry x="2034" y="1356" width="100" height="48" as="geometry" />
        </mxCell>
        <mxCell id="NtRwRhiNoUlh-8ukEZx0-32" value="Hint pressed" style="edgeStyle=orthogonalEdgeStyle;rounded=0;orthogonalLoop=1;jettySize=auto;html=1;entryX=0;entryY=0.5;entryDx=0;entryDy=0;" edge="1" parent="1" source="NtRwRhiNoUlh-8ukEZx0-27" target="NtRwRhiNoUlh-8ukEZx0-33">
          <mxGeometry relative="1" as="geometry">
            <mxPoint x="2064" y="1501" as="targetPoint" />
          </mxGeometry>
        </mxCell>
        <mxCell id="NtRwRhiNoUlh-8ukEZx0-42" value="Correct Answer" style="edgeStyle=orthogonalEdgeStyle;rounded=0;orthogonalLoop=1;jettySize=auto;html=1;" edge="1" parent="1" source="NtRwRhiNoUlh-8ukEZx0-27" target="NtRwRhiNoUlh-8ukEZx0-43">
          <mxGeometry relative="1" as="geometry">
            <mxPoint x="1692" y="1518" as="targetPoint" />
          </mxGeometry>
        </mxCell>
        <mxCell id="NtRwRhiNoUlh-8ukEZx0-57" value="Incorrect answer" style="edgeStyle=orthogonalEdgeStyle;rounded=0;orthogonalLoop=1;jettySize=auto;html=1;" edge="1" parent="1" source="NtRwRhiNoUlh-8ukEZx0-27" target="NtRwRhiNoUlh-8ukEZx0-58">
          <mxGeometry relative="1" as="geometry">
            <mxPoint x="1885" y="1578" as="targetPoint" />
          </mxGeometry>
        </mxCell>
        <mxCell id="NtRwRhiNoUlh-8ukEZx0-27" value="Easy gui appears&lt;br&gt;Start gui disappears." style="rounded=1;whiteSpace=wrap;html=1;absoluteArcSize=1;arcSize=14;strokeWidth=2;" vertex="1" parent="1">
          <mxGeometry x="1830" y="1416" width="110" height="50" as="geometry" />
        </mxCell>
        <mxCell id="NtRwRhiNoUlh-8ukEZx0-37" value="Dismiss / X" style="edgeStyle=orthogonalEdgeStyle;rounded=0;orthogonalLoop=1;jettySize=auto;html=1;entryX=1;entryY=0.25;entryDx=0;entryDy=0;" edge="1" parent="1" source="NtRwRhiNoUlh-8ukEZx0-33" target="NtRwRhiNoUlh-8ukEZx0-27">
          <mxGeometry relative="1" as="geometry">
            <mxPoint x="2084" y="1524" as="targetPoint" />
            <Array as="points">
              <mxPoint x="1987" y="1429" />
            </Array>
          </mxGeometry>
        </mxCell>
        <mxCell id="NtRwRhiNoUlh-8ukEZx0-39" style="edgeStyle=orthogonalEdgeStyle;rounded=0;orthogonalLoop=1;jettySize=auto;html=1;entryX=-0.015;entryY=0.24;entryDx=0;entryDy=0;entryPerimeter=0;" edge="1" parent="1" source="NtRwRhiNoUlh-8ukEZx0-33" target="NtRwRhiNoUlh-8ukEZx0-36">
          <mxGeometry relative="1" as="geometry">
            <Array as="points">
              <mxPoint x="2189" y="1430" />
            </Array>
          </mxGeometry>
        </mxCell>
        <mxCell id="NtRwRhiNoUlh-8ukEZx0-40" value="Dismiss / X" style="edgeLabel;html=1;align=center;verticalAlign=middle;resizable=0;points=[];" vertex="1" connectable="0" parent="NtRwRhiNoUlh-8ukEZx0-39">
          <mxGeometry x="-0.1828" relative="1" as="geometry">
            <mxPoint as="offset" />
          </mxGeometry>
        </mxCell>
        <mxCell id="NtRwRhiNoUlh-8ukEZx0-33" value="Hint gui appears" style="rounded=1;whiteSpace=wrap;html=1;absoluteArcSize=1;arcSize=14;strokeWidth=2;" vertex="1" parent="1">
          <mxGeometry x="2034" y="1412.5" width="100" height="57" as="geometry" />
        </mxCell>
        <mxCell id="NtRwRhiNoUlh-8ukEZx0-38" value="Hint pressed" style="edgeStyle=orthogonalEdgeStyle;rounded=0;orthogonalLoop=1;jettySize=auto;html=1;" edge="1" parent="1" source="NtRwRhiNoUlh-8ukEZx0-36">
          <mxGeometry relative="1" as="geometry">
            <mxPoint x="2134" y="1446" as="targetPoint" />
            <Array as="points">
              <mxPoint x="2232" y="1446" />
              <mxPoint x="2232" y="1446" />
            </Array>
          </mxGeometry>
        </mxCell>
        <mxCell id="NtRwRhiNoUlh-8ukEZx0-83" value="Correct Answer" style="edgeStyle=orthogonalEdgeStyle;rounded=0;orthogonalLoop=1;jettySize=auto;html=1;" edge="1" parent="1" source="NtRwRhiNoUlh-8ukEZx0-36" target="NtRwRhiNoUlh-8ukEZx0-85">
          <mxGeometry relative="1" as="geometry">
            <mxPoint x="2466" y="1548" as="targetPoint" />
            <Array as="points">
              <mxPoint x="2466" y="1441" />
            </Array>
          </mxGeometry>
        </mxCell>
        <mxCell id="NtRwRhiNoUlh-8ukEZx0-89" value="Incorrect" style="edgeStyle=orthogonalEdgeStyle;rounded=0;orthogonalLoop=1;jettySize=auto;html=1;" edge="1" parent="1" source="NtRwRhiNoUlh-8ukEZx0-36" target="NtRwRhiNoUlh-8ukEZx0-90">
          <mxGeometry relative="1" as="geometry">
            <mxPoint x="2294.0000000000005" y="1512" as="targetPoint" />
          </mxGeometry>
        </mxCell>
        <mxCell id="NtRwRhiNoUlh-8ukEZx0-36" value="Hard gui appears&lt;br&gt;Start gui disappears" style="rounded=1;whiteSpace=wrap;html=1;absoluteArcSize=1;arcSize=14;strokeWidth=2;" vertex="1" parent="1">
          <mxGeometry x="2244" y="1419" width="100" height="44" as="geometry" />
        </mxCell>
        <mxCell id="NtRwRhiNoUlh-8ukEZx0-45" value="Finish Early" style="edgeStyle=orthogonalEdgeStyle;rounded=0;orthogonalLoop=1;jettySize=auto;html=1;entryX=-0.027;entryY=0.657;entryDx=0;entryDy=0;entryPerimeter=0;" edge="1" parent="1" source="NtRwRhiNoUlh-8ukEZx0-43" target="NtRwRhiNoUlh-8ukEZx0-93">
          <mxGeometry relative="1" as="geometry">
            <mxPoint x="1650" y="1812" as="targetPoint" />
            <Array as="points">
              <mxPoint x="1500" y="1563" />
              <mxPoint x="1500" y="1822" />
              <mxPoint x="1650" y="1822" />
            </Array>
          </mxGeometry>
        </mxCell>
        <mxCell id="NtRwRhiNoUlh-8ukEZx0-47" value="Next" style="edgeStyle=orthogonalEdgeStyle;rounded=0;orthogonalLoop=1;jettySize=auto;html=1;" edge="1" parent="1" source="NtRwRhiNoUlh-8ukEZx0-43" target="NtRwRhiNoUlh-8ukEZx0-48">
          <mxGeometry relative="1" as="geometry">
            <mxPoint x="1692" y="1704" as="targetPoint" />
          </mxGeometry>
        </mxCell>
        <mxCell id="NtRwRhiNoUlh-8ukEZx0-112" style="edgeStyle=orthogonalEdgeStyle;rounded=0;orthogonalLoop=1;jettySize=auto;html=1;" edge="1" parent="1" source="NtRwRhiNoUlh-8ukEZx0-43">
          <mxGeometry relative="1" as="geometry">
            <mxPoint x="1788" y="1746" as="targetPoint" />
            <Array as="points">
              <mxPoint x="1788" y="1560" />
            </Array>
          </mxGeometry>
        </mxCell>
        <mxCell id="NtRwRhiNoUlh-8ukEZx0-43" value="Label is green and says correct.&lt;br&gt;Correct label goes up by 1 and rounds played goes up by 1" style="rounded=1;whiteSpace=wrap;html=1;absoluteArcSize=1;arcSize=14;strokeWidth=2;" vertex="1" parent="1">
          <mxGeometry x="1642" y="1518" width="100" height="90" as="geometry" />
        </mxCell>
        <mxCell id="NtRwRhiNoUlh-8ukEZx0-55" value="Amount of rounds played&amp;nbsp;&lt;br&gt;equals to amount of rounds entered" style="edgeStyle=orthogonalEdgeStyle;rounded=0;orthogonalLoop=1;jettySize=auto;html=1;" edge="1" parent="1" source="NtRwRhiNoUlh-8ukEZx0-48" target="NtRwRhiNoUlh-8ukEZx0-93">
          <mxGeometry relative="1" as="geometry">
            <mxPoint x="2064" y="1806" as="targetPoint" />
            <Array as="points">
              <mxPoint x="1662" y="1806" />
            </Array>
          </mxGeometry>
        </mxCell>
        <mxCell id="NtRwRhiNoUlh-8ukEZx0-59" value="Correct!" style="edgeStyle=orthogonalEdgeStyle;rounded=0;orthogonalLoop=1;jettySize=auto;html=1;entryX=-0.027;entryY=0.674;entryDx=0;entryDy=0;entryPerimeter=0;" edge="1" parent="1" source="NtRwRhiNoUlh-8ukEZx0-48" target="NtRwRhiNoUlh-8ukEZx0-43">
          <mxGeometry relative="1" as="geometry">
            <mxPoint x="1578" y="1578" as="targetPoint" />
            <Array as="points">
              <mxPoint x="1560" y="1685" />
              <mxPoint x="1560" y="1579" />
            </Array>
          </mxGeometry>
        </mxCell>
        <mxCell id="NtRwRhiNoUlh-8ukEZx0-62" value="Incorrect" style="edgeStyle=orthogonalEdgeStyle;rounded=0;orthogonalLoop=1;jettySize=auto;html=1;" edge="1" parent="1" source="NtRwRhiNoUlh-8ukEZx0-48" target="NtRwRhiNoUlh-8ukEZx0-58">
          <mxGeometry relative="1" as="geometry">
            <mxPoint x="1890" y="1608" as="targetPoint" />
          </mxGeometry>
        </mxCell>
        <mxCell id="NtRwRhiNoUlh-8ukEZx0-48" value="New set of questions and capitals are shown" style="rounded=1;whiteSpace=wrap;html=1;absoluteArcSize=1;arcSize=14;strokeWidth=2;" vertex="1" parent="1">
          <mxGeometry x="1642" y="1654" width="100" height="62" as="geometry" />
        </mxCell>
        <mxCell id="NtRwRhiNoUlh-8ukEZx0-60" style="edgeStyle=orthogonalEdgeStyle;rounded=0;orthogonalLoop=1;jettySize=auto;html=1;" edge="1" parent="1" source="NtRwRhiNoUlh-8ukEZx0-58">
          <mxGeometry relative="1" as="geometry">
            <mxPoint x="1704" y="1632" as="targetPoint" />
            <Array as="points">
              <mxPoint x="1854" y="1632" />
            </Array>
          </mxGeometry>
        </mxCell>
        <mxCell id="NtRwRhiNoUlh-8ukEZx0-94" style="edgeStyle=orthogonalEdgeStyle;rounded=0;orthogonalLoop=1;jettySize=auto;html=1;entryX=0.5;entryY=0;entryDx=0;entryDy=0;" edge="1" parent="1" source="NtRwRhiNoUlh-8ukEZx0-58" target="NtRwRhiNoUlh-8ukEZx0-93">
          <mxGeometry relative="1" as="geometry">
            <Array as="points">
              <mxPoint x="2096" y="1554" />
            </Array>
          </mxGeometry>
        </mxCell>
        <mxCell id="NtRwRhiNoUlh-8ukEZx0-113" style="edgeStyle=orthogonalEdgeStyle;rounded=0;orthogonalLoop=1;jettySize=auto;html=1;" edge="1" parent="1" source="NtRwRhiNoUlh-8ukEZx0-58" target="NtRwRhiNoUlh-8ukEZx0-115">
          <mxGeometry relative="1" as="geometry">
            <mxPoint x="1788" y="1746" as="targetPoint" />
            <Array as="points">
              <mxPoint x="1788" y="1560" />
            </Array>
          </mxGeometry>
        </mxCell>
        <mxCell id="NtRwRhiNoUlh-8ukEZx0-114" value="X on top right" style="edgeLabel;html=1;align=center;verticalAlign=middle;resizable=0;points=[];" vertex="1" connectable="0" parent="NtRwRhiNoUlh-8ukEZx0-113">
          <mxGeometry x="-0.2842" relative="1" as="geometry">
            <mxPoint as="offset" />
          </mxGeometry>
        </mxCell>
        <mxCell id="NtRwRhiNoUlh-8ukEZx0-58" value="Label is red shows the user the correct answer.&lt;br&gt;Rounds played goes up by 1" style="rounded=1;whiteSpace=wrap;html=1;absoluteArcSize=1;arcSize=14;strokeWidth=2;" vertex="1" parent="1">
          <mxGeometry x="1835" y="1506" width="100" height="100" as="geometry" />
        </mxCell>
        <mxCell id="NtRwRhiNoUlh-8ukEZx0-86" value="Next" style="edgeStyle=orthogonalEdgeStyle;rounded=0;orthogonalLoop=1;jettySize=auto;html=1;" edge="1" parent="1" source="NtRwRhiNoUlh-8ukEZx0-85" target="NtRwRhiNoUlh-8ukEZx0-87">
          <mxGeometry relative="1" as="geometry">
            <mxPoint x="2466" y="1662" as="targetPoint" />
          </mxGeometry>
        </mxCell>
        <mxCell id="NtRwRhiNoUlh-8ukEZx0-98" value="Finish Early" style="edgeStyle=orthogonalEdgeStyle;rounded=0;orthogonalLoop=1;jettySize=auto;html=1;entryX=0.998;entryY=0.682;entryDx=0;entryDy=0;entryPerimeter=0;" edge="1" parent="1" source="NtRwRhiNoUlh-8ukEZx0-85" target="NtRwRhiNoUlh-8ukEZx0-93">
          <mxGeometry relative="1" as="geometry">
            <mxPoint x="2580" y="1824" as="targetPoint" />
            <Array as="points">
              <mxPoint x="2670" y="1552" />
              <mxPoint x="2670" y="1824" />
            </Array>
          </mxGeometry>
        </mxCell>
        <mxCell id="NtRwRhiNoUlh-8ukEZx0-124" style="edgeStyle=orthogonalEdgeStyle;rounded=0;orthogonalLoop=1;jettySize=auto;html=1;" edge="1" parent="1" source="NtRwRhiNoUlh-8ukEZx0-85">
          <mxGeometry relative="1" as="geometry">
            <mxPoint x="2370" y="1704" as="targetPoint" />
          </mxGeometry>
        </mxCell>
        <mxCell id="NtRwRhiNoUlh-8ukEZx0-85" value="&lt;span&gt;Label is green and says correct.&lt;/span&gt;&lt;br&gt;&lt;span&gt;Correct label goes up by 1 and rounds played goes up by 1&lt;/span&gt;" style="rounded=1;whiteSpace=wrap;html=1;absoluteArcSize=1;arcSize=14;strokeWidth=2;" vertex="1" parent="1">
          <mxGeometry x="2416" y="1506" width="100" height="92" as="geometry" />
        </mxCell>
        <mxCell id="NtRwRhiNoUlh-8ukEZx0-88" value="Correct" style="edgeStyle=orthogonalEdgeStyle;rounded=0;orthogonalLoop=1;jettySize=auto;html=1;entryX=1.013;entryY=0.598;entryDx=0;entryDy=0;entryPerimeter=0;" edge="1" parent="1" source="NtRwRhiNoUlh-8ukEZx0-87" target="NtRwRhiNoUlh-8ukEZx0-85">
          <mxGeometry relative="1" as="geometry">
            <mxPoint x="2580" y="1560" as="targetPoint" />
            <Array as="points">
              <mxPoint x="2604" y="1682" />
              <mxPoint x="2604" y="1560" />
              <mxPoint x="2517" y="1560" />
            </Array>
          </mxGeometry>
        </mxCell>
        <mxCell id="NtRwRhiNoUlh-8ukEZx0-92" value="Incorrect" style="edgeStyle=orthogonalEdgeStyle;rounded=0;orthogonalLoop=1;jettySize=auto;html=1;entryX=0.418;entryY=1.013;entryDx=0;entryDy=0;entryPerimeter=0;" edge="1" parent="1" source="NtRwRhiNoUlh-8ukEZx0-87" target="NtRwRhiNoUlh-8ukEZx0-90">
          <mxGeometry relative="1" as="geometry" />
        </mxCell>
        <mxCell id="NtRwRhiNoUlh-8ukEZx0-96" style="edgeStyle=orthogonalEdgeStyle;rounded=0;orthogonalLoop=1;jettySize=auto;html=1;entryX=1;entryY=0.5;entryDx=0;entryDy=0;" edge="1" parent="1" source="NtRwRhiNoUlh-8ukEZx0-87" target="NtRwRhiNoUlh-8ukEZx0-93">
          <mxGeometry relative="1" as="geometry">
            <mxPoint x="2466" y="1806" as="targetPoint" />
            <Array as="points">
              <mxPoint x="2466" y="1806" />
            </Array>
          </mxGeometry>
        </mxCell>
        <mxCell id="NtRwRhiNoUlh-8ukEZx0-97" value="Amount of rounds played&amp;nbsp;&lt;br&gt;equals to amount of rounds entered" style="edgeLabel;html=1;align=center;verticalAlign=middle;resizable=0;points=[];" vertex="1" connectable="0" parent="NtRwRhiNoUlh-8ukEZx0-96">
          <mxGeometry x="0.108" y="-2" relative="1" as="geometry">
            <mxPoint as="offset" />
          </mxGeometry>
        </mxCell>
        <mxCell id="NtRwRhiNoUlh-8ukEZx0-87" value="New capital is shown" style="rounded=1;whiteSpace=wrap;html=1;absoluteArcSize=1;arcSize=14;strokeWidth=2;" vertex="1" parent="1">
          <mxGeometry x="2416" y="1654" width="100" height="56" as="geometry" />
        </mxCell>
        <mxCell id="NtRwRhiNoUlh-8ukEZx0-91" style="edgeStyle=orthogonalEdgeStyle;rounded=0;orthogonalLoop=1;jettySize=auto;html=1;" edge="1" parent="1" source="NtRwRhiNoUlh-8ukEZx0-90">
          <mxGeometry relative="1" as="geometry">
            <mxPoint x="2454" y="1626" as="targetPoint" />
            <Array as="points">
              <mxPoint x="2322" y="1626" />
            </Array>
          </mxGeometry>
        </mxCell>
        <mxCell id="NtRwRhiNoUlh-8ukEZx0-95" value="Finish Early" style="edgeStyle=orthogonalEdgeStyle;rounded=0;orthogonalLoop=1;jettySize=auto;html=1;entryX=0.5;entryY=0;entryDx=0;entryDy=0;" edge="1" parent="1" source="NtRwRhiNoUlh-8ukEZx0-90" target="NtRwRhiNoUlh-8ukEZx0-93">
          <mxGeometry relative="1" as="geometry">
            <Array as="points">
              <mxPoint x="2096" y="1554" />
            </Array>
          </mxGeometry>
        </mxCell>
        <mxCell id="NtRwRhiNoUlh-8ukEZx0-123" style="edgeStyle=orthogonalEdgeStyle;rounded=0;orthogonalLoop=1;jettySize=auto;html=1;entryX=0.5;entryY=0;entryDx=0;entryDy=0;entryPerimeter=0;" edge="1" parent="1">
          <mxGeometry relative="1" as="geometry">
            <mxPoint x="2341.0000000000005" y="1552.0285714285715" as="sourcePoint" />
            <mxPoint x="2370" y="1704" as="targetPoint" />
            <Array as="points">
              <mxPoint x="2370" y="1552" />
            </Array>
          </mxGeometry>
        </mxCell>
        <mxCell id="NtRwRhiNoUlh-8ukEZx0-125" value="X on top right" style="edgeLabel;html=1;align=center;verticalAlign=middle;resizable=0;points=[];" vertex="1" connectable="0" parent="NtRwRhiNoUlh-8ukEZx0-123">
          <mxGeometry x="-0.1848" y="-1" relative="1" as="geometry">
            <mxPoint x="3.98" y="14.24" as="offset" />
          </mxGeometry>
        </mxCell>
        <mxCell id="NtRwRhiNoUlh-8ukEZx0-90" value="&lt;span&gt;Label is red shows the user the correct answer.&lt;/span&gt;&lt;br&gt;&lt;span&gt;Rounds played goes up by 1&lt;/span&gt;" style="rounded=1;whiteSpace=wrap;html=1;absoluteArcSize=1;arcSize=14;strokeWidth=2;" vertex="1" parent="1">
          <mxGeometry x="2244.0000000000005" y="1502" width="100" height="100" as="geometry" />
        </mxCell>
        <mxCell id="NtRwRhiNoUlh-8ukEZx0-99" value="Play Again!" style="edgeStyle=orthogonalEdgeStyle;rounded=0;orthogonalLoop=1;jettySize=auto;html=1;entryX=0.11;entryY=0.15;entryDx=0;entryDy=0;entryPerimeter=0;" edge="1" parent="1" source="NtRwRhiNoUlh-8ukEZx0-93" target="NtRwRhiNoUlh-8ukEZx0-5">
          <mxGeometry relative="1" as="geometry">
            <mxPoint x="1302" y="1152" as="targetPoint" />
            <Array as="points">
              <mxPoint x="2070" y="1896" />
              <mxPoint x="1470" y="1896" />
              <mxPoint x="1470" y="1137" />
            </Array>
          </mxGeometry>
        </mxCell>
        <mxCell id="NtRwRhiNoUlh-8ukEZx0-100" value="Quit&amp;nbsp; / X" style="edgeStyle=orthogonalEdgeStyle;rounded=0;orthogonalLoop=1;jettySize=auto;html=1;" edge="1" parent="1" source="NtRwRhiNoUlh-8ukEZx0-93" target="NtRwRhiNoUlh-8ukEZx0-103">
          <mxGeometry relative="1" as="geometry">
            <mxPoint x="2096" y="1954" as="targetPoint" />
            <Array as="points">
              <mxPoint x="2124" y="1902" />
            </Array>
          </mxGeometry>
        </mxCell>
        <mxCell id="NtRwRhiNoUlh-8ukEZx0-104" value="Export" style="edgeStyle=orthogonalEdgeStyle;rounded=0;orthogonalLoop=1;jettySize=auto;html=1;" edge="1" parent="1" source="NtRwRhiNoUlh-8ukEZx0-93" target="NtRwRhiNoUlh-8ukEZx0-105">
          <mxGeometry relative="1" as="geometry">
            <mxPoint x="2096" y="1992" as="targetPoint" />
          </mxGeometry>
        </mxCell>
        <mxCell id="NtRwRhiNoUlh-8ukEZx0-93" value="End GUI&lt;br&gt;Previous gui closes&lt;br&gt;Shows amount correct and rounds played&lt;br&gt;+ Accuracy" style="rounded=1;whiteSpace=wrap;html=1;absoluteArcSize=1;arcSize=14;strokeWidth=2;" vertex="1" parent="1">
          <mxGeometry x="2046" y="1756" width="100" height="100" as="geometry" />
        </mxCell>
        <mxCell id="NtRwRhiNoUlh-8ukEZx0-103" value="Program ends" style="strokeWidth=2;html=1;shape=mxgraph.flowchart.terminator;whiteSpace=wrap;" vertex="1" parent="1">
          <mxGeometry x="2292" y="1872" width="100" height="60" as="geometry" />
        </mxCell>
        <mxCell id="NtRwRhiNoUlh-8ukEZx0-106" value="Cancel / X" style="edgeStyle=orthogonalEdgeStyle;rounded=0;orthogonalLoop=1;jettySize=auto;html=1;entryX=-0.015;entryY=0.808;entryDx=0;entryDy=0;entryPerimeter=0;" edge="1" parent="1" source="NtRwRhiNoUlh-8ukEZx0-105" target="NtRwRhiNoUlh-8ukEZx0-93">
          <mxGeometry relative="1" as="geometry">
            <mxPoint x="1974" y="1836" as="targetPoint" />
            <Array as="points">
              <mxPoint x="1956" y="2017" />
              <mxPoint x="1956" y="1837" />
            </Array>
          </mxGeometry>
        </mxCell>
        <mxCell id="NtRwRhiNoUlh-8ukEZx0-107" value="Valid File name and save pressed" style="edgeStyle=orthogonalEdgeStyle;rounded=0;orthogonalLoop=1;jettySize=auto;html=1;" edge="1" parent="1" source="NtRwRhiNoUlh-8ukEZx0-105" target="NtRwRhiNoUlh-8ukEZx0-108">
          <mxGeometry relative="1" as="geometry">
            <mxPoint x="2096" y="2106" as="targetPoint" />
          </mxGeometry>
        </mxCell>
        <mxCell id="NtRwRhiNoUlh-8ukEZx0-109" value="Invalid file name entered" style="edgeStyle=orthogonalEdgeStyle;rounded=0;orthogonalLoop=1;jettySize=auto;html=1;" edge="1" parent="1" source="NtRwRhiNoUlh-8ukEZx0-105" target="NtRwRhiNoUlh-8ukEZx0-111">
          <mxGeometry relative="1" as="geometry">
            <mxPoint x="2394" y="2017" as="targetPoint" />
          </mxGeometry>
        </mxCell>
        <mxCell id="NtRwRhiNoUlh-8ukEZx0-105" value="Export gui opens" style="rounded=1;whiteSpace=wrap;html=1;absoluteArcSize=1;arcSize=14;strokeWidth=2;" vertex="1" parent="1">
          <mxGeometry x="2046" y="1992" width="100" height="50" as="geometry" />
        </mxCell>
        <mxCell id="NtRwRhiNoUlh-8ukEZx0-108" value="File is saves and GUI closes" style="rounded=1;whiteSpace=wrap;html=1;absoluteArcSize=1;arcSize=14;strokeWidth=2;" vertex="1" parent="1">
          <mxGeometry x="2046" y="2106" width="100" height="50" as="geometry" />
        </mxCell>
        <mxCell id="NtRwRhiNoUlh-8ukEZx0-111" value="Error shows not saved." style="rounded=1;whiteSpace=wrap;html=1;absoluteArcSize=1;arcSize=14;strokeWidth=2;" vertex="1" parent="1">
          <mxGeometry x="2352" y="1992" width="100" height="48" as="geometry" />
        </mxCell>
        <mxCell id="NtRwRhiNoUlh-8ukEZx0-115" value="Program ends" style="strokeWidth=2;html=1;shape=mxgraph.flowchart.terminator;whiteSpace=wrap;" vertex="1" parent="1">
          <mxGeometry x="1738" y="1740" width="100" height="36" as="geometry" />
        </mxCell>
        <mxCell id="NtRwRhiNoUlh-8ukEZx0-121" value="Program Ends" style="strokeWidth=2;html=1;shape=mxgraph.flowchart.terminator;whiteSpace=wrap;" vertex="1" parent="1">
          <mxGeometry x="2316" y="1704" width="100" height="60" as="geometry" />
        </mxCell>
        <mxCell id="NtRwRhiNoUlh-8ukEZx0-127" value="Program ends" style="strokeWidth=2;html=1;shape=mxgraph.flowchart.terminator;whiteSpace=wrap;" vertex="1" parent="1">
          <mxGeometry x="1794" y="1266" width="100" height="42" as="geometry" />
        </mxCell>
      </root>
    </mxGraphModel>
  </diagram>
</mxfile>
